<svg width="679" height="748" viewBox="0 0 679 748" fill="#fff" xmlns="http://www.w3.org/2000/svg">
<path d="M339.693 0C389.376 0 433.193 43.6933 463.813 114.339C468.152 124.422 472.308 135.057 476.095 146.177C487.829 144.344 499.193 142.938 510.136 142.084C586.833 135.974 645.989 154.183 669.336 198.125C692.68 242.005 674.654 301.218 626.68 361.352C623.503 365.326 620.201 369.357 616.779 373.331C620.201 377.362 623.56 381.336 626.68 385.31C674.653 445.446 692.68 504.665 669.336 548.537C645.992 592.474 586.836 610.687 510.136 604.578C499.198 603.724 487.829 602.38 476.095 600.484C472.308 611.667 468.152 622.302 463.813 632.323C433.199 702.968 389.381 746.662 339.693 746.662C289.948 746.662 246.131 702.968 215.516 632.323C211.177 622.302 207.021 611.667 203.235 600.484C191.5 602.38 180.136 603.724 169.193 604.578C92.4961 610.687 33.3401 592.479 9.99344 548.537C-13.3506 504.657 4.67572 445.443 52.6495 385.31C55.8265 381.336 59.1286 377.367 62.5505 373.331C59.1286 369.357 55.8265 365.326 52.6495 361.352C4.67612 301.216 -13.3506 241.997 9.99344 198.125C33.3374 154.188 92.4934 135.974 169.193 142.084C180.131 142.938 191.5 144.344 203.235 146.177C207.021 135.058 211.177 124.423 215.516 114.339C246.131 43.6933 289.948 0 339.693 0V0ZM595.08 396.853C569.72 422.645 539.225 448.249 504.632 472.447C500.356 507.217 493.877 539.916 485.627 569.739C494.856 571.145 503.897 572.181 512.637 572.853C576.501 577.926 624.351 565.275 641.216 533.619C658.023 501.963 641.706 455.149 601.8 405.097C599.659 402.347 597.399 399.597 595.076 396.847L595.08 396.853ZM84.2533 349.796C109.613 324.004 140.108 298.4 174.701 274.203C178.977 239.432 185.457 206.733 193.707 176.911C184.477 175.567 175.436 174.525 166.696 173.796C102.832 168.723 54.9826 181.437 38.1173 213.031C21.3106 244.687 37.6277 291.5 77.5333 341.552C79.7312 344.302 81.9344 347.052 84.2573 349.802L84.2533 349.796ZM105.701 373.323C124.461 392.511 146.28 411.64 170.723 430.219C169.441 411.64 168.77 392.635 168.77 373.323C168.77 354.011 169.441 335.005 170.723 316.489C146.28 335.005 124.463 354.135 105.701 373.323ZM204.701 454.416C226.395 469.02 249.743 483.015 274.368 496.093C296.248 507.703 318.123 518.093 339.696 527.14C361.207 518.093 383.087 507.765 404.904 496.093H404.966C429.597 483.015 452.94 469.02 474.633 454.416C477.321 428.443 478.727 401.312 478.727 373.323C478.727 345.396 477.321 318.197 474.633 292.229C452.94 277.683 429.592 263.688 404.966 250.552C383.086 238.943 361.212 228.552 339.701 219.505C318.128 228.552 296.248 238.937 274.436 250.552H274.373C249.743 263.693 226.4 277.688 204.707 292.229C202.019 318.203 200.613 345.396 200.613 373.323C200.613 401.312 202.019 428.448 204.707 454.416H204.701ZM381.621 543.333C406.679 552.073 431.059 558.979 454.283 563.989C460.272 542.781 465.283 519.989 469.195 495.849C453.429 505.625 436.929 515.161 419.877 524.204C407.107 530.985 394.331 537.402 381.623 543.335L381.621 543.333ZM573.635 373.32C554.937 354.132 533.119 335.003 508.671 316.487C509.895 335.003 510.567 354.008 510.567 373.32C510.567 392.632 509.895 411.637 508.671 430.216C533.113 411.637 554.931 392.508 573.635 373.32V373.32ZM297.715 203.307C272.657 194.567 248.277 187.661 225.053 182.651C219.064 203.859 214.053 226.713 210.141 250.853C225.907 241.015 242.407 231.479 259.459 222.437C272.229 215.656 285.005 209.297 297.713 203.307H297.715ZM234.709 152.219C268.016 159.615 303.397 170.615 339.636 185.099C375.876 170.615 411.319 159.615 444.625 152.219C441.511 143.359 438.146 134.921 434.662 126.859C409.24 68.192 375.568 31.828 339.692 31.828C303.76 31.828 270.088 68.188 244.662 126.859C241.177 134.926 237.818 143.359 234.698 152.219H234.709ZM381.616 203.307C394.33 209.296 407.1 215.65 419.871 222.437C436.923 231.484 453.423 241.016 469.188 250.853C465.277 226.713 460.266 203.859 454.276 182.651C431.052 187.661 406.672 194.567 381.615 203.307H381.616ZM504.637 274.197C539.225 298.395 569.72 324.004 595.085 349.791C597.408 347.041 599.669 344.291 601.809 341.541C641.716 291.489 658.033 244.677 641.225 213.019C624.361 181.426 576.507 168.713 512.647 173.785C503.907 174.519 494.865 175.555 485.636 176.899C493.886 206.722 500.365 239.415 504.641 274.191L504.637 274.197ZM444.627 594.477C411.32 587.081 375.939 576.081 339.7 561.54C303.46 576.087 268.017 587.087 234.711 594.477C237.825 603.279 241.19 611.712 244.674 619.78C270.096 678.509 303.768 714.811 339.705 714.811C375.58 714.811 409.252 678.508 434.674 619.78C438.159 611.712 441.518 603.28 444.638 594.477H444.627ZM297.72 543.327C285.006 537.4 272.236 530.983 259.465 524.196C242.413 515.149 225.913 505.617 210.148 495.841C214.059 519.981 219.07 542.773 225.06 563.981C248.284 558.971 272.664 552.065 297.721 543.325L297.72 543.327ZM174.699 472.436C140.111 448.239 109.616 422.629 84.2506 396.843C81.9277 399.593 79.7298 402.343 77.5266 405.093C37.62 455.145 21.3026 501.957 38.1106 533.614C54.9746 565.27 102.829 577.921 166.689 572.849C175.429 572.177 184.471 571.135 193.7 569.734C185.45 539.911 178.971 507.218 174.695 472.442L174.699 472.436ZM339.699 277.423C382.72 277.423 417.553 284.511 417.553 293.188C417.553 301.928 382.72 309.016 339.699 309.016C296.616 309.016 261.781 301.927 261.781 293.188C261.781 284.511 296.615 277.423 339.699 277.423ZM414.319 417.303C416.459 418.771 417.558 420.297 417.558 421.886V453.417C417.558 462.094 382.725 469.182 339.704 469.182C296.621 469.182 261.786 462.093 261.786 453.417V421.886C261.786 420.297 262.885 418.771 265.026 417.303C274.682 423.839 304.442 428.547 339.703 428.547C374.906 428.547 404.667 423.844 414.323 417.303H414.319ZM414.319 363.953C416.459 365.422 417.558 366.948 417.558 368.474V400.067C417.558 408.745 382.725 415.833 339.704 415.833C296.621 415.833 261.786 408.744 261.786 400.067V368.474C261.786 366.948 262.885 365.417 265.026 363.953C274.682 370.49 304.442 375.198 339.703 375.198C374.906 375.198 404.667 370.495 414.323 363.953H414.319ZM414.319 310.604C416.459 312.01 417.558 313.536 417.558 315.125V346.655C417.558 355.395 382.725 362.483 339.704 362.483C296.621 362.483 261.786 355.395 261.786 346.655V315.125C261.786 313.536 262.885 312.01 265.026 310.604C274.682 317.083 304.442 321.849 339.703 321.849C374.906 321.849 404.667 317.083 414.323 310.604H414.319Z" fill="white"/>
<path d="M0.0625 747.563C0.0468747 747.578 0.0312493 747.583 0.0208333 747.583H-0.0208333C-0.052084 747.583 -0.0781253 747.578 -0.104167 747.563C-0.119792 747.537 -0.125 747.51 -0.125 747.479C-0.125 747.438 -0.119792 747.412 -0.104167 747.396C-0.0781253 747.37 -0.052084 747.354 -0.0208333 747.354H0.0208333C0.0312493 747.354 0.0468747 747.365 0.0625 747.375V747.417H0.0208333C0.0208333 747.406 0.0104173 747.396 3.72529e-09 747.396C-0.0312507 747.396 -0.0520827 747.406 -0.0625 747.417V747.479V747.521C-0.0520833 747.537 -0.0312493 747.542 3.72529e-09 747.542H0.0208333C0.0312493 747.542 0.0468747 747.537 0.0625 747.521V747.563Z" fill="black"/>
<path d="M0.223938 747.458H0.203105C0.187479 747.458 0.171854 747.469 0.161438 747.479V747.5V747.583H0.098938V747.417H0.161438V747.438V747.417H0.203105H0.223938V747.458Z" fill="black"/>
<path d="M0.416636 747.5V747.521H0.291636V747.542H0.333303H0.374969C0.385387 747.542 0.401011 747.537 0.416636 747.521V747.583H0.374969H0.333303C0.302052 747.583 0.28122 747.578 0.270803 747.563C0.255177 747.552 0.249969 747.531 0.249969 747.5C0.249969 747.474 0.255178 747.453 0.270803 747.438C0.281219 747.427 0.302053 747.417 0.333303 747.417C0.359344 747.417 0.380177 747.427 0.395803 747.438C0.406219 747.453 0.416636 747.474 0.416636 747.5ZM0.374969 747.479C0.374969 747.469 0.364552 747.458 0.354136 747.458H0.333303H0.291636V747.479H0.374969Z" fill="black"/>
<path d="M0.541646 747.5C0.526021 747.5 0.510396 747.51 0.49998 747.521V747.542H0.520813H0.541646L0.56248 747.521V747.5H0.541646ZM0.62498 747.479V747.583H0.56248V747.563C0.56248 747.578 0.552063 747.583 0.541646 747.583H0.49998H0.458313V747.521C0.458313 747.51 0.463521 747.5 0.479146 747.5C0.489563 747.49 0.510397 747.479 0.541646 747.479H0.56248C0.56248 747.469 0.552063 747.458 0.541646 747.458H0.520813H0.479146H0.458313V747.417H0.49998H0.541646C0.567688 747.417 0.588521 747.427 0.604146 747.438C0.614562 747.453 0.62498 747.469 0.62498 747.479Z" fill="black"/>
<path d="M0.723958 747.375V747.417H0.786458V747.458H0.723958V747.521V747.542H0.744792H0.765625V747.583H0.723958H0.682292C0.666666 747.573 0.661458 747.552 0.661458 747.521V747.458H0.640625V747.417H0.661458V747.375H0.723958Z" fill="black"/>
<path d="M0.973918 747.5V747.521H0.848918V747.542H0.890584H0.932251C0.942668 747.542 0.958292 747.537 0.973918 747.521V747.583H0.932251H0.890584C0.859334 747.583 0.838502 747.578 0.828084 747.563C0.812459 747.552 0.807251 747.531 0.807251 747.5C0.807251 747.474 0.812459 747.453 0.828084 747.438C0.838501 747.427 0.859335 747.417 0.890584 747.417C0.916626 747.417 0.937459 747.427 0.953084 747.438C0.9635 747.453 0.973918 747.474 0.973918 747.5ZM0.932251 747.479C0.932251 747.469 0.921834 747.458 0.911418 747.458H0.890584H0.848918V747.479H0.932251Z" fill="black"/>
<path d="M1.14063 747.438V747.354H1.18229V747.583H1.14063V747.563C1.125 747.578 1.10937 747.583 1.09896 747.583H1.07813C1.0625 747.583 1.04687 747.578 1.03646 747.563C1.02083 747.552 1.01562 747.531 1.01562 747.5C1.01562 747.474 1.02083 747.453 1.03646 747.438C1.04688 747.427 1.0625 747.417 1.07813 747.417H1.09896C1.10938 747.417 1.125 747.427 1.14063 747.438V747.438ZM1.09896 747.542H1.11979C1.13021 747.531 1.14063 747.516 1.14063 747.5C1.14063 747.49 1.13021 747.479 1.11979 747.479C1.11979 747.469 1.10938 747.458 1.09896 747.458C1.08333 747.458 1.06771 747.469 1.05729 747.479V747.5V747.542H1.09896Z" fill="black"/>
<path d="M1.42186 747.542H1.4427C1.45311 747.531 1.46353 747.516 1.46353 747.5C1.46353 747.49 1.45311 747.479 1.4427 747.479C1.4427 747.469 1.43228 747.458 1.42186 747.458L1.40103 747.479V747.5V747.542H1.42186ZM1.40103 747.438C1.40103 747.427 1.40624 747.417 1.42186 747.417H1.4427C1.46874 747.417 1.48957 747.427 1.5052 747.438C1.51562 747.453 1.52603 747.474 1.52603 747.5C1.52603 747.531 1.51562 747.552 1.5052 747.563C1.48957 747.578 1.46874 747.583 1.4427 747.583H1.42186C1.40624 747.583 1.40103 747.578 1.40103 747.563V747.583H1.33853V747.354H1.40103V747.438Z" fill="black"/>
<path d="M1.53644 747.417H1.59894L1.6406 747.521L1.68227 747.417H1.72394L1.66144 747.604C1.64581 747.615 1.63019 747.625 1.61977 747.625C1.61977 747.635 1.60935 747.646 1.59894 747.646H1.55727V747.604H1.5781H1.59894C1.59894 747.604 1.60415 747.594 1.61977 747.583L1.53644 747.417Z" fill="black"/>
<path d="M1.92706 747.563V747.646H1.86456V747.417H1.92706V747.438C1.92706 747.427 1.93227 747.417 1.9479 747.417H1.96873C1.99477 747.417 2.0156 747.427 2.03123 747.438C2.04165 747.453 2.05206 747.474 2.05206 747.5C2.05206 747.531 2.04165 747.552 2.03123 747.563C2.0156 747.578 1.99477 747.583 1.96873 747.583H1.9479C1.93227 747.583 1.92706 747.578 1.92706 747.563V747.563ZM1.9479 747.458L1.92706 747.479V747.5V747.542H1.9479H1.96873C1.97915 747.531 1.98956 747.516 1.98956 747.5C1.98956 747.49 1.97915 747.479 1.96873 747.479C1.96873 747.469 1.95831 747.458 1.9479 747.458Z" fill="black"/>
<path d="M2.16665 747.458C2.15102 747.458 2.1354 747.469 2.12498 747.479V747.5V747.542H2.16665H2.18748C2.1979 747.531 2.20831 747.516 2.20831 747.5C2.20831 747.49 2.1979 747.479 2.18748 747.479C2.18748 747.469 2.17706 747.458 2.16665 747.458ZM2.16665 747.417C2.19269 747.417 2.21352 747.427 2.22915 747.438C2.23956 747.453 2.24998 747.474 2.24998 747.5C2.24998 747.531 2.23956 747.552 2.22915 747.563C2.21352 747.578 2.19269 747.583 2.16665 747.583C2.1354 747.583 2.11456 747.578 2.10415 747.563C2.08852 747.552 2.08331 747.531 2.08331 747.5C2.08331 747.474 2.08852 747.453 2.10415 747.438C2.11456 747.427 2.1354 747.417 2.16665 747.417Z" fill="black"/>
<path d="M2.35416 747.563V747.646H2.29166V747.417H2.35416V747.438C2.35416 747.427 2.35936 747.417 2.37499 747.417H2.39582C2.42186 747.417 2.4427 747.427 2.45832 747.438C2.46874 747.453 2.47916 747.474 2.47916 747.5C2.47916 747.531 2.46874 747.552 2.45832 747.563C2.4427 747.578 2.42186 747.583 2.39582 747.583H2.37499C2.35936 747.583 2.35416 747.578 2.35416 747.563V747.563ZM2.37499 747.458L2.35416 747.479V747.5V747.542H2.37499H2.39582C2.40624 747.531 2.41666 747.516 2.41666 747.5C2.41666 747.49 2.40624 747.479 2.39582 747.479C2.39582 747.469 2.38541 747.458 2.37499 747.458Z" fill="black"/>
<path d="M2.65624 747.417V747.458H2.61457H2.59374L2.57291 747.479C2.55728 747.479 2.55207 747.49 2.55207 747.5C2.55207 747.516 2.55728 747.531 2.57291 747.542H2.59374H2.61457H2.65624V747.583H2.61457H2.59374C2.56249 747.583 2.54166 747.578 2.53124 747.563C2.51561 747.552 2.51041 747.531 2.51041 747.5C2.51041 747.474 2.51561 747.453 2.53124 747.438C2.54166 747.427 2.56249 747.417 2.59374 747.417H2.61457H2.65624Z" fill="black"/>
<path d="M2.77602 747.458C2.7604 747.458 2.74477 747.469 2.73435 747.479V747.5V747.542H2.77602H2.79685C2.80727 747.531 2.81769 747.516 2.81769 747.5C2.81769 747.49 2.80727 747.479 2.79685 747.479C2.79685 747.469 2.78644 747.458 2.77602 747.458ZM2.77602 747.417C2.80206 747.417 2.8229 747.427 2.83852 747.438C2.84894 747.453 2.85935 747.474 2.85935 747.5C2.85935 747.531 2.84894 747.552 2.83852 747.563C2.8229 747.578 2.80206 747.583 2.77602 747.583C2.74477 747.583 2.72394 747.578 2.71352 747.563C2.6979 747.552 2.69269 747.531 2.69269 747.5C2.69269 747.474 2.6979 747.453 2.71352 747.438C2.72394 747.427 2.74477 747.417 2.77602 747.417Z" fill="black"/>
<path d="M3.02603 747.458H3.0052C2.98957 747.458 2.97395 747.469 2.96353 747.479V747.5V747.583H2.90103V747.417H2.96353V747.438V747.417H3.0052H3.02603V747.458Z" fill="black"/>
<path d="M3.21873 747.479V747.583H3.17706V747.5V747.479C3.17706 747.479 3.16665 747.474 3.15623 747.458H3.1354L3.11456 747.479V747.5V747.583H3.05206V747.417H3.11456V747.438C3.11456 747.427 3.11977 747.417 3.1354 747.417H3.15623C3.18227 747.417 3.1979 747.427 3.1979 747.438C3.20831 747.453 3.21873 747.469 3.21873 747.479Z" fill="black"/>
<path d="M3.35415 747.5C3.33852 747.5 3.3229 747.51 3.31248 747.521V747.542H3.33331H3.35415L3.37498 747.521V747.5H3.35415ZM3.43748 747.479V747.583H3.37498V747.563C3.37498 747.578 3.36456 747.583 3.35415 747.583H3.31248H3.27081V747.521C3.27081 747.51 3.27602 747.5 3.29165 747.5C3.30206 747.49 3.3229 747.479 3.35415 747.479H3.37498C3.37498 747.469 3.36456 747.458 3.35415 747.458H3.33331H3.29165H3.27081V747.417H3.31248H3.35415C3.38019 747.417 3.40102 747.427 3.41665 747.438C3.42706 747.453 3.43748 747.469 3.43748 747.479Z" fill="black"/>
<path d="M3.60416 747.458H3.58332C3.5677 747.458 3.55207 747.469 3.54166 747.479V747.5V747.583H3.47916V747.417H3.54166V747.438V747.417H3.58332H3.60416V747.458Z" fill="black"/>
<path d="M3.69268 747.375V747.417H3.75518V747.458H3.69268V747.521V747.542H3.71351H3.73434V747.583H3.69268H3.65101C3.63539 747.573 3.63018 747.552 3.63018 747.521V747.458H3.60934V747.417H3.63018V747.375H3.69268Z" fill="black"/>
<path d="M3.92186 747.417V747.458H3.8802H3.83853H3.8177V747.479H3.83853H3.85936C3.88541 747.479 3.90103 747.49 3.90103 747.5C3.91145 747.5 3.92186 747.516 3.92186 747.542C3.92186 747.557 3.91145 747.573 3.90103 747.583H3.83853H3.79686H3.77603V747.542H3.79686H3.83853H3.85936V747.521H3.83853C3.80728 747.521 3.78645 747.516 3.77603 747.5V747.458C3.77603 747.448 3.78124 747.438 3.79686 747.438C3.80728 747.427 3.82291 747.417 3.83853 747.417H3.8802H3.92186Z" fill="black"/>
<path d="M0.130188 747.766H0.109355C0.0937293 747.766 0.078104 747.776 0.067688 747.786V747.807V747.891H0.00518799V747.724H0.067688V747.745V747.724H0.109355H0.130188V747.766Z" fill="black"/>
<path d="M0.239583 747.766C0.223958 747.766 0.208333 747.776 0.197917 747.786V747.807V747.849H0.239583H0.260417C0.270833 747.838 0.28125 747.823 0.28125 747.807C0.28125 747.797 0.270833 747.786 0.260417 747.786C0.260417 747.776 0.25 747.766 0.239583 747.766ZM0.239583 747.724C0.265625 747.724 0.286458 747.734 0.302083 747.745C0.312499 747.76 0.322917 747.781 0.322917 747.807C0.322917 747.838 0.312499 747.859 0.302083 747.87C0.286458 747.885 0.265625 747.891 0.239583 747.891C0.208333 747.891 0.187501 747.885 0.177083 747.87C0.161458 747.859 0.15625 747.838 0.15625 747.807C0.15625 747.781 0.161458 747.76 0.177083 747.745C0.1875 747.734 0.208334 747.724 0.239583 747.724Z" fill="black"/>
<path d="M0.536418 747.745H0.557251C0.567667 747.734 0.578084 747.724 0.578084 747.724C0.604126 747.724 0.619751 747.734 0.619751 747.745C0.630168 747.76 0.640584 747.776 0.640584 747.786V747.891H0.578084V747.807V747.786V747.766C0.562459 747.766 0.546835 747.776 0.536418 747.786V747.807V747.891H0.473918V747.807V747.786C0.473918 747.776 0.463501 747.766 0.453084 747.766L0.432251 747.786V747.807V747.891H0.369751V747.724H0.432251V747.745V747.724H0.473918C0.484334 747.724 0.494751 747.734 0.494751 747.745H0.536418Z" fill="black"/>
<path d="M0.854146 747.682V747.724H0.916646V747.766H0.854146V747.828V747.849H0.87498H0.895813V747.891H0.854146H0.81248C0.796854 747.88 0.791646 747.859 0.791646 747.828V747.766H0.770813V747.724H0.791646V747.682H0.854146Z" fill="black"/>
<path d="M1.10414 747.786V747.891H1.06247V747.807V747.786C1.06247 747.786 1.05205 747.781 1.04164 747.766H1.0208L0.999969 747.786V747.807V747.891H0.937469V747.661H0.999969V747.745C0.999969 747.734 1.00518 747.724 1.0208 747.724H1.04164C1.06768 747.724 1.0833 747.734 1.0833 747.745C1.09372 747.76 1.10414 747.776 1.10414 747.786V747.786Z" fill="black"/>
<path d="M1.32289 747.807V747.828H1.19789V747.849H1.23955H1.28122C1.29164 747.849 1.30726 747.844 1.32289 747.828V747.891H1.28122H1.23955C1.2083 747.891 1.18747 747.885 1.17705 747.87C1.16143 747.859 1.15622 747.838 1.15622 747.807C1.15622 747.781 1.16143 747.76 1.17705 747.745C1.18747 747.734 1.2083 747.724 1.23955 747.724C1.26559 747.724 1.28643 747.734 1.30205 747.745C1.31247 747.76 1.32289 747.781 1.32289 747.807ZM1.28122 747.786C1.28122 747.776 1.2708 747.766 1.26039 747.766H1.23955H1.19789V747.786H1.28122Z" fill="black"/>
<path d="M1.46872 747.661H1.53122L1.61455 747.828V747.661H1.67705V747.891H1.61455L1.53122 747.745V747.891H1.46872V747.661Z" fill="black"/>
<path d="M1.80727 747.766C1.79165 747.766 1.77602 747.776 1.7656 747.786V747.807V747.849H1.80727H1.8281C1.83852 747.838 1.84894 747.823 1.84894 747.807C1.84894 747.797 1.83852 747.786 1.8281 747.786C1.8281 747.776 1.81769 747.766 1.80727 747.766ZM1.80727 747.724C1.83331 747.724 1.85415 747.734 1.86977 747.745C1.88019 747.76 1.8906 747.781 1.8906 747.807C1.8906 747.838 1.88019 747.859 1.86977 747.87C1.85415 747.885 1.83331 747.891 1.80727 747.891C1.77602 747.891 1.75519 747.885 1.74477 747.87C1.72915 747.859 1.72394 747.838 1.72394 747.807C1.72394 747.781 1.72915 747.76 1.74477 747.745C1.75519 747.734 1.77602 747.724 1.80727 747.724Z" fill="black"/>
<path d="M1.93747 747.828V747.724H1.99997V747.745V747.766V747.807V747.828V747.849H2.0208H2.04164C2.05205 747.838 2.06247 747.823 2.06247 747.807V747.724H2.10414V747.891H2.06247V747.87C2.04684 747.885 2.03122 747.891 2.0208 747.891H1.99997C1.98434 747.891 1.96872 747.885 1.9583 747.87C1.94268 747.859 1.93747 747.844 1.93747 747.828Z" fill="black"/>
<path d="M2.31767 747.786V747.891H2.276V747.807V747.786C2.276 747.786 2.26558 747.781 2.25517 747.766H2.23433L2.2135 747.786V747.807V747.891H2.151V747.724H2.2135V747.745C2.2135 747.734 2.21871 747.724 2.23433 747.724H2.25517C2.28121 747.724 2.29683 747.734 2.29683 747.745C2.30725 747.76 2.31767 747.776 2.31767 747.786Z" fill="black"/>
<path d="M2.47916 747.661H2.58332C2.60936 747.661 2.6302 747.672 2.64582 747.682C2.65624 747.698 2.66666 747.719 2.66666 747.745C2.66666 747.776 2.65624 747.797 2.64582 747.807H2.58332H2.54166V747.891H2.47916V747.661ZM2.54166 747.703V747.766H2.58332C2.59374 747.766 2.60416 747.76 2.60416 747.745C2.60416 747.734 2.59374 747.724 2.58332 747.724V747.703H2.54166Z" fill="black"/>
<path d="M2.82813 747.766H2.80729C2.79167 747.766 2.77604 747.776 2.76563 747.786V747.807V747.891H2.70312V747.724H2.76563V747.745V747.724H2.80729H2.82813V747.766Z" fill="black"/>
<path d="M2.93227 747.766C2.91665 747.766 2.90102 747.776 2.8906 747.786V747.807V747.849H2.93227H2.9531C2.96352 747.838 2.97394 747.823 2.97394 747.807C2.97394 747.797 2.96352 747.786 2.9531 747.786C2.9531 747.776 2.94269 747.766 2.93227 747.766ZM2.93227 747.724C2.95831 747.724 2.97915 747.734 2.99477 747.745C3.00519 747.76 3.0156 747.781 3.0156 747.807C3.0156 747.838 3.00519 747.859 2.99477 747.87C2.97915 747.885 2.95831 747.891 2.93227 747.891C2.90102 747.891 2.88019 747.885 2.86977 747.87C2.85415 747.859 2.84894 747.838 2.84894 747.807C2.84894 747.781 2.85415 747.76 2.86977 747.745C2.88019 747.734 2.90102 747.724 2.93227 747.724Z" fill="black"/>
<path d="M3.06249 747.724H3.12499V747.891C3.12499 747.901 3.11457 747.917 3.10416 747.932C3.08853 747.943 3.07291 747.953 3.06249 747.953H3.04166V747.911H3.06249V747.891V747.724ZM3.06249 747.661H3.12499V747.703H3.06249V747.661Z" fill="black"/>
<path d="M3.33329 747.807V747.828H3.20829V747.849H3.24996H3.29163C3.30204 747.849 3.31767 747.844 3.33329 747.828V747.891H3.29163H3.24996C3.21871 747.891 3.19788 747.885 3.18746 747.87C3.17183 747.859 3.16663 747.838 3.16663 747.807C3.16663 747.781 3.17183 747.76 3.18746 747.745C3.19788 747.734 3.21871 747.724 3.24996 747.724C3.276 747.724 3.29683 747.734 3.31246 747.745C3.32288 747.76 3.33329 747.781 3.33329 747.807ZM3.29163 747.786C3.29163 747.776 3.28121 747.766 3.27079 747.766H3.24996H3.20829V747.786H3.29163Z" fill="black"/>
<path d="M3.5208 747.724V747.766H3.47914H3.4583L3.43747 747.786C3.42184 747.786 3.41664 747.797 3.41664 747.807C3.41664 747.823 3.42184 747.838 3.43747 747.849H3.4583H3.47914H3.5208V747.891H3.47914H3.4583C3.42705 747.891 3.40622 747.885 3.3958 747.87C3.38018 747.859 3.37497 747.838 3.37497 747.807C3.37497 747.781 3.38018 747.76 3.3958 747.745C3.40622 747.734 3.42705 747.724 3.4583 747.724H3.47914H3.5208Z" fill="black"/>
<path d="M3.61455 747.682V747.724H3.67705V747.766H3.61455V747.828V747.849H3.63539H3.65622V747.891H3.61455H3.57289C3.55726 747.88 3.55205 747.859 3.55205 747.828V747.766H3.53122V747.724H3.55205V747.682H3.61455Z" fill="black"/>
</svg>
