<svg width="679" height="680" viewBox="0 0 679 680" fill="none" xmlns="http://www.w3.org/2000/svg">
<path d="M339.693 0C389.376 0 433.193 39.7237 463.813 103.951C468.152 113.118 472.308 122.787 476.095 132.897C487.829 131.23 499.193 129.952 510.136 129.175C586.833 123.621 645.989 140.175 669.336 180.125C692.68 220.018 674.654 273.852 626.68 328.522C623.503 332.135 620.201 335.8 616.779 339.413C620.201 343.078 623.56 346.691 626.68 350.304C674.653 404.976 692.68 458.815 669.336 498.701C645.992 538.646 586.836 555.205 510.136 549.651C499.198 548.874 487.829 547.653 476.095 545.929C472.308 556.095 468.152 565.764 463.813 574.875C433.199 639.102 389.381 678.826 339.693 678.826C289.948 678.826 246.131 639.102 215.516 574.875C211.177 565.765 207.021 556.096 203.235 545.929C191.5 547.653 180.136 548.874 169.193 549.651C92.4961 555.205 33.3401 538.651 9.99344 498.701C-13.3506 458.808 4.67572 404.974 52.6495 350.304C55.8265 346.691 59.1286 343.083 62.5505 339.413C59.1286 335.8 55.8265 332.135 52.6495 328.522C4.67612 273.85 -13.3506 220.011 9.99344 180.125C33.3374 140.179 92.4934 123.621 169.193 129.175C180.131 129.952 191.5 131.23 203.235 132.897C207.021 122.787 211.177 113.119 215.516 103.951C246.131 39.7237 289.948 0 339.693 0V0ZM595.08 360.798C569.72 384.247 539.225 407.525 504.632 429.524C500.356 461.136 493.877 490.863 485.627 517.977C494.856 519.255 503.897 520.197 512.637 520.808C576.501 525.42 624.351 513.919 641.216 485.138C658.023 456.358 641.706 413.798 601.8 368.293C599.659 365.793 597.399 363.293 595.076 360.793L595.08 360.798ZM84.2533 318.016C109.613 294.568 140.108 271.29 174.701 249.291C178.977 217.679 185.457 187.951 193.707 160.838C184.477 159.616 175.436 158.669 166.696 158.006C102.832 153.394 54.9826 164.953 38.1173 193.677C21.3106 222.456 37.6277 265.017 77.5333 310.521C79.7312 313.022 81.9344 315.522 84.2573 318.022L84.2533 318.016ZM105.701 339.406C124.461 356.85 146.28 374.242 170.723 391.132C169.441 374.242 168.77 356.963 168.77 339.406C168.77 321.848 169.441 304.569 170.723 287.736C146.28 304.569 124.463 321.961 105.701 339.406ZM204.701 413.131C226.395 426.409 249.743 439.132 274.368 451.022C296.248 461.577 318.123 471.023 339.696 479.248C361.207 471.023 383.087 461.634 404.904 451.022H404.966C429.597 439.132 452.94 426.409 474.633 413.131C477.321 389.518 478.727 364.852 478.727 339.406C478.727 314.016 477.321 289.288 474.633 265.68C452.94 252.455 429.592 239.731 404.966 227.789C383.086 217.234 361.212 207.788 339.701 199.563C318.128 207.788 296.248 217.229 274.436 227.789H274.373C249.743 239.736 226.4 252.459 204.707 265.68C202.019 289.293 200.613 314.016 200.613 339.406C200.613 364.852 202.019 389.523 204.707 413.131H204.701ZM381.621 493.97C406.679 501.916 431.059 508.194 454.283 512.75C460.272 493.469 465.283 472.747 469.195 450.8C453.429 459.688 436.929 468.358 419.877 476.579C407.107 482.744 394.331 488.578 381.623 493.972L381.621 493.97ZM573.635 339.403C554.937 321.958 533.119 304.567 508.671 287.733C509.895 304.567 510.567 321.846 510.567 339.403C510.567 356.961 509.895 374.239 508.671 391.13C533.113 374.239 554.931 356.848 573.635 339.403V339.403ZM297.715 184.836C272.657 176.89 248.277 170.612 225.053 166.056C219.064 185.338 214.053 206.116 210.141 228.063C225.907 219.118 242.407 210.448 259.459 202.228C272.229 196.063 285.005 190.282 297.713 184.836H297.715ZM234.709 138.389C268.016 145.113 303.397 155.114 339.636 168.282C375.876 155.114 411.319 145.113 444.625 138.389C441.511 130.335 438.146 122.663 434.662 115.333C409.24 61.9966 375.568 28.9364 339.692 28.9364C303.76 28.9364 270.088 61.993 244.662 115.333C241.177 122.668 237.818 130.334 234.698 138.389H234.709ZM381.616 184.836C394.33 190.281 407.1 196.058 419.871 202.228C436.923 210.453 453.423 219.119 469.188 228.063C465.277 206.116 460.266 185.338 454.276 166.056C431.052 170.612 406.672 176.89 381.615 184.836H381.616ZM504.637 249.286C539.225 271.285 569.72 294.568 595.085 318.011C597.408 315.511 599.669 313.011 601.809 310.511C641.716 265.006 658.033 222.447 641.225 193.666C624.361 164.943 576.507 153.385 512.647 157.996C503.907 158.664 494.865 159.606 485.636 160.828C493.886 187.941 500.365 217.664 504.641 249.28L504.637 249.286ZM444.627 540.468C411.32 533.744 375.939 523.743 339.7 510.523C303.46 523.748 268.017 533.749 234.711 540.468C237.825 548.47 241.19 556.137 244.674 563.472C270.096 616.865 303.768 649.869 339.705 649.869C375.58 649.869 409.252 616.864 434.674 563.472C438.159 556.137 441.518 548.471 444.638 540.468H444.627ZM297.72 493.964C285.006 488.576 272.236 482.742 259.465 476.572C242.413 468.347 225.913 459.681 210.148 450.793C214.059 472.74 219.07 493.461 225.06 512.742C248.284 508.187 272.664 501.908 297.721 493.963L297.72 493.964ZM174.699 429.514C140.111 407.515 109.616 384.233 84.2506 360.789C81.9277 363.289 79.7298 365.789 77.5266 368.289C37.62 413.794 21.3026 456.353 38.1106 485.134C54.9746 513.914 102.829 525.415 166.689 520.804C175.429 520.193 184.471 519.246 193.7 517.973C185.45 490.859 178.971 461.136 174.695 429.52L174.699 429.514ZM339.699 252.218C382.72 252.218 417.553 258.663 417.553 266.551C417.553 274.497 382.72 280.941 339.699 280.941C296.616 280.941 261.781 274.497 261.781 266.551C261.781 258.663 296.615 252.218 339.699 252.218ZM414.319 379.39C416.459 380.725 417.558 382.113 417.558 383.557V412.223C417.558 420.112 382.725 426.556 339.704 426.556C296.621 426.556 261.786 420.111 261.786 412.223V383.557C261.786 382.113 262.885 380.725 265.026 379.39C274.682 385.332 304.442 389.613 339.703 389.613C374.906 389.613 404.667 385.337 414.323 379.39H414.319ZM414.319 330.887C416.459 332.223 417.558 333.61 417.558 334.997V363.72C417.558 371.609 382.725 378.054 339.704 378.054C296.621 378.054 261.786 371.609 261.786 363.72V334.997C261.786 333.61 262.885 332.218 265.026 330.887C274.682 336.83 304.442 341.111 339.703 341.111C374.906 341.111 404.667 336.835 414.323 330.887H414.319ZM414.319 282.385C416.459 283.663 417.558 285.051 417.558 286.495V315.161C417.558 323.107 382.725 329.551 339.704 329.551C296.621 329.551 261.786 323.107 261.786 315.161V286.495C261.786 285.051 262.885 283.663 265.026 282.385C274.682 288.276 304.442 292.608 339.703 292.608C374.906 292.608 404.667 288.276 414.323 282.385H414.319Z" fill="white"/>
<path d="M0.0625 679.644C0.0468747 679.658 0.0312493 679.663 0.0208333 679.663H-0.0208333C-0.052084 679.663 -0.0781253 679.658 -0.104167 679.644C-0.119792 679.621 -0.125 679.597 -0.125 679.569C-0.125 679.531 -0.119792 679.507 -0.104167 679.493C-0.0781253 679.47 -0.052084 679.456 -0.0208333 679.456H0.0208333C0.0312493 679.456 0.0468747 679.465 0.0625 679.474V679.512H0.0208333C0.0208333 679.503 0.0104173 679.493 3.72529e-09 679.493C-0.0312507 679.493 -0.0520827 679.503 -0.0625 679.512V679.569V679.606C-0.0520833 679.621 -0.0312493 679.625 3.72529e-09 679.625H0.0208333C0.0312493 679.625 0.0468747 679.621 0.0625 679.606V679.644Z" fill="black"/>
<path d="M0.223938 679.55H0.203105C0.187479 679.55 0.171854 679.56 0.161438 679.569V679.588V679.663H0.098938V679.512H0.161438V679.531V679.512H0.203105H0.223938V679.55Z" fill="black"/>
<path d="M0.416636 679.588V679.607H0.291636V679.626H0.333303H0.374969C0.385387 679.626 0.401011 679.621 0.416636 679.607V679.663H0.374969H0.333303C0.302052 679.663 0.28122 679.659 0.270803 679.645C0.255177 679.635 0.249969 679.616 0.249969 679.588C0.249969 679.564 0.255178 679.545 0.270803 679.531C0.281219 679.522 0.302053 679.512 0.333303 679.512C0.359344 679.512 0.380177 679.522 0.395803 679.531C0.406219 679.545 0.416636 679.564 0.416636 679.588ZM0.374969 679.569C0.374969 679.56 0.364552 679.55 0.354136 679.55H0.333303H0.291636V679.569H0.374969Z" fill="black"/>
<path d="M0.541646 679.588C0.526021 679.588 0.510396 679.597 0.49998 679.607V679.626H0.520813H0.541646L0.56248 679.607V679.588H0.541646ZM0.62498 679.569V679.663H0.56248V679.645C0.56248 679.659 0.552063 679.663 0.541646 679.663H0.49998H0.458313V679.607C0.458313 679.597 0.463521 679.588 0.479146 679.588C0.489563 679.578 0.510397 679.569 0.541646 679.569H0.56248C0.56248 679.56 0.552063 679.55 0.541646 679.55H0.520813H0.479146H0.458313V679.512H0.49998H0.541646C0.567688 679.512 0.588521 679.522 0.604146 679.531C0.614562 679.545 0.62498 679.56 0.62498 679.569Z" fill="black"/>
<path d="M0.723958 679.474V679.512H0.786458V679.55H0.723958V679.606V679.625H0.744792H0.765625V679.663H0.723958H0.682292C0.666666 679.654 0.661458 679.635 0.661458 679.606V679.55H0.640625V679.512H0.661458V679.474H0.723958Z" fill="black"/>
<path d="M0.973918 679.588V679.607H0.848918V679.626H0.890584H0.932251C0.942668 679.626 0.958292 679.621 0.973918 679.607V679.663H0.932251H0.890584C0.859334 679.663 0.838502 679.659 0.828084 679.645C0.812459 679.635 0.807251 679.616 0.807251 679.588C0.807251 679.564 0.812459 679.545 0.828084 679.531C0.838501 679.522 0.859335 679.512 0.890584 679.512C0.916626 679.512 0.937459 679.522 0.953084 679.531C0.9635 679.545 0.973918 679.564 0.973918 679.588ZM0.932251 679.569C0.932251 679.56 0.921834 679.55 0.911418 679.55H0.890584H0.848918V679.569H0.932251Z" fill="black"/>
<path d="M1.14063 679.531V679.456H1.18229V679.663H1.14063V679.644C1.125 679.658 1.10937 679.663 1.09896 679.663H1.07813C1.0625 679.663 1.04687 679.658 1.03646 679.644C1.02083 679.635 1.01562 679.616 1.01562 679.588C1.01562 679.564 1.02083 679.545 1.03646 679.531C1.04688 679.522 1.0625 679.512 1.07813 679.512H1.09896C1.10938 679.512 1.125 679.522 1.14063 679.531V679.531ZM1.09896 679.625H1.11979C1.13021 679.616 1.14063 679.602 1.14063 679.588C1.14063 679.578 1.13021 679.569 1.11979 679.569C1.11979 679.559 1.10938 679.55 1.09896 679.55C1.08333 679.55 1.06771 679.559 1.05729 679.569V679.588V679.625H1.09896Z" fill="black"/>
<path d="M1.42186 679.625H1.4427C1.45311 679.616 1.46353 679.602 1.46353 679.588C1.46353 679.578 1.45311 679.569 1.4427 679.569C1.4427 679.559 1.43228 679.55 1.42186 679.55L1.40103 679.569V679.588V679.625H1.42186ZM1.40103 679.531C1.40103 679.522 1.40624 679.512 1.42186 679.512H1.4427C1.46874 679.512 1.48957 679.522 1.5052 679.531C1.51562 679.545 1.52603 679.564 1.52603 679.588C1.52603 679.616 1.51562 679.635 1.5052 679.644C1.48957 679.658 1.46874 679.663 1.4427 679.663H1.42186C1.40624 679.663 1.40103 679.658 1.40103 679.644V679.663H1.33853V679.456H1.40103V679.531Z" fill="black"/>
<path d="M1.53644 679.512H1.59894L1.6406 679.607L1.68227 679.512H1.72394L1.66144 679.682C1.64581 679.691 1.63019 679.701 1.61977 679.701C1.61977 679.71 1.60935 679.72 1.59894 679.72H1.55727V679.682H1.5781H1.59894C1.59894 679.682 1.60415 679.673 1.61977 679.663L1.53644 679.512Z" fill="black"/>
<path d="M1.92706 679.644V679.72H1.86456V679.512H1.92706V679.531C1.92706 679.522 1.93227 679.512 1.9479 679.512H1.96873C1.99477 679.512 2.0156 679.522 2.03123 679.531C2.04165 679.545 2.05206 679.564 2.05206 679.588C2.05206 679.616 2.04165 679.635 2.03123 679.644C2.0156 679.658 1.99477 679.663 1.96873 679.663H1.9479C1.93227 679.663 1.92706 679.658 1.92706 679.644V679.644ZM1.9479 679.55L1.92706 679.569V679.588V679.625H1.9479H1.96873C1.97915 679.616 1.98956 679.602 1.98956 679.588C1.98956 679.578 1.97915 679.569 1.96873 679.569C1.96873 679.559 1.95831 679.55 1.9479 679.55Z" fill="black"/>
<path d="M2.16665 679.55C2.15102 679.55 2.1354 679.56 2.12498 679.569V679.588V679.626H2.16665H2.18748C2.1979 679.616 2.20831 679.602 2.20831 679.588C2.20831 679.578 2.1979 679.569 2.18748 679.569C2.18748 679.56 2.17706 679.55 2.16665 679.55ZM2.16665 679.512C2.19269 679.512 2.21352 679.522 2.22915 679.531C2.23956 679.545 2.24998 679.564 2.24998 679.588C2.24998 679.616 2.23956 679.635 2.22915 679.645C2.21352 679.659 2.19269 679.663 2.16665 679.663C2.1354 679.663 2.11456 679.659 2.10415 679.645C2.08852 679.635 2.08331 679.616 2.08331 679.588C2.08331 679.564 2.08852 679.545 2.10415 679.531C2.11456 679.522 2.1354 679.512 2.16665 679.512Z" fill="black"/>
<path d="M2.35416 679.644V679.72H2.29166V679.512H2.35416V679.531C2.35416 679.522 2.35936 679.512 2.37499 679.512H2.39582C2.42186 679.512 2.4427 679.522 2.45832 679.531C2.46874 679.545 2.47916 679.564 2.47916 679.588C2.47916 679.616 2.46874 679.635 2.45832 679.644C2.4427 679.658 2.42186 679.663 2.39582 679.663H2.37499C2.35936 679.663 2.35416 679.658 2.35416 679.644V679.644ZM2.37499 679.55L2.35416 679.569V679.588V679.625H2.37499H2.39582C2.40624 679.616 2.41666 679.602 2.41666 679.588C2.41666 679.578 2.40624 679.569 2.39582 679.569C2.39582 679.559 2.38541 679.55 2.37499 679.55Z" fill="black"/>
<path d="M2.65624 679.512V679.55H2.61457H2.59374L2.57291 679.569C2.55728 679.569 2.55207 679.578 2.55207 679.588C2.55207 679.602 2.55728 679.616 2.57291 679.626H2.59374H2.61457H2.65624V679.663H2.61457H2.59374C2.56249 679.663 2.54166 679.659 2.53124 679.645C2.51561 679.635 2.51041 679.616 2.51041 679.588C2.51041 679.564 2.51561 679.545 2.53124 679.531C2.54166 679.522 2.56249 679.512 2.59374 679.512H2.61457H2.65624Z" fill="black"/>
<path d="M2.77602 679.55C2.7604 679.55 2.74477 679.56 2.73435 679.569V679.588V679.626H2.77602H2.79685C2.80727 679.616 2.81769 679.602 2.81769 679.588C2.81769 679.578 2.80727 679.569 2.79685 679.569C2.79685 679.56 2.78644 679.55 2.77602 679.55ZM2.77602 679.512C2.80206 679.512 2.8229 679.522 2.83852 679.531C2.84894 679.545 2.85935 679.564 2.85935 679.588C2.85935 679.616 2.84894 679.635 2.83852 679.645C2.8229 679.659 2.80206 679.663 2.77602 679.663C2.74477 679.663 2.72394 679.659 2.71352 679.645C2.6979 679.635 2.69269 679.616 2.69269 679.588C2.69269 679.564 2.6979 679.545 2.71352 679.531C2.72394 679.522 2.74477 679.512 2.77602 679.512Z" fill="black"/>
<path d="M3.02603 679.55H3.0052C2.98957 679.55 2.97395 679.56 2.96353 679.569V679.588V679.663H2.90103V679.512H2.96353V679.531V679.512H3.0052H3.02603V679.55Z" fill="black"/>
<path d="M3.21873 679.569V679.663H3.17706V679.588V679.569C3.17706 679.569 3.16665 679.564 3.15623 679.55H3.1354L3.11456 679.569V679.588V679.663H3.05206V679.512H3.11456V679.531C3.11456 679.522 3.11977 679.512 3.1354 679.512H3.15623C3.18227 679.512 3.1979 679.522 3.1979 679.531C3.20831 679.545 3.21873 679.56 3.21873 679.569Z" fill="black"/>
<path d="M3.35415 679.588C3.33852 679.588 3.3229 679.597 3.31248 679.607V679.626H3.33331H3.35415L3.37498 679.607V679.588H3.35415ZM3.43748 679.569V679.663H3.37498V679.645C3.37498 679.659 3.36456 679.663 3.35415 679.663H3.31248H3.27081V679.607C3.27081 679.597 3.27602 679.588 3.29165 679.588C3.30206 679.578 3.3229 679.569 3.35415 679.569H3.37498C3.37498 679.56 3.36456 679.55 3.35415 679.55H3.33331H3.29165H3.27081V679.512H3.31248H3.35415C3.38019 679.512 3.40102 679.522 3.41665 679.531C3.42706 679.545 3.43748 679.56 3.43748 679.569Z" fill="black"/>
<path d="M3.60416 679.55H3.58332C3.5677 679.55 3.55207 679.56 3.54166 679.569V679.588V679.663H3.47916V679.512H3.54166V679.531V679.512H3.58332H3.60416V679.55Z" fill="black"/>
<path d="M3.69268 679.474V679.512H3.75518V679.55H3.69268V679.606V679.625H3.71351H3.73434V679.663H3.69268H3.65101C3.63539 679.654 3.63018 679.635 3.63018 679.606V679.55H3.60934V679.512H3.63018V679.474H3.69268Z" fill="black"/>
<path d="M3.92186 679.512V679.55H3.8802H3.83853H3.8177V679.569H3.83853H3.85936C3.88541 679.569 3.90103 679.578 3.90103 679.588C3.91145 679.588 3.92186 679.602 3.92186 679.626C3.92186 679.64 3.91145 679.654 3.90103 679.663H3.83853H3.79686H3.77603V679.626H3.79686H3.83853H3.85936V679.607H3.83853C3.80728 679.607 3.78645 679.602 3.77603 679.588V679.55C3.77603 679.541 3.78124 679.531 3.79686 679.531C3.80728 679.522 3.82291 679.512 3.83853 679.512H3.8802H3.92186Z" fill="black"/>
<path d="M0.130188 679.829H0.109355C0.0937293 679.829 0.078104 679.839 0.067688 679.848V679.867V679.943H0.00518799V679.792H0.067688V679.81V679.792H0.109355H0.130188V679.829Z" fill="black"/>
<path d="M0.239583 679.829C0.223958 679.829 0.208333 679.839 0.197917 679.848V679.867V679.905H0.239583H0.260417C0.270833 679.895 0.28125 679.881 0.28125 679.867C0.28125 679.858 0.270833 679.848 0.260417 679.848C0.260417 679.839 0.25 679.829 0.239583 679.829ZM0.239583 679.792C0.265625 679.792 0.286458 679.801 0.302083 679.81C0.312499 679.825 0.322917 679.843 0.322917 679.867C0.322917 679.895 0.312499 679.914 0.302083 679.924C0.286458 679.938 0.265625 679.943 0.239583 679.943C0.208333 679.943 0.187501 679.938 0.177083 679.924C0.161458 679.914 0.15625 679.895 0.15625 679.867C0.15625 679.843 0.161458 679.825 0.177083 679.81C0.1875 679.801 0.208334 679.792 0.239583 679.792Z" fill="black"/>
<path d="M0.536418 679.81H0.557251C0.567667 679.801 0.578084 679.792 0.578084 679.792C0.604126 679.792 0.619751 679.801 0.619751 679.81C0.630168 679.825 0.640584 679.839 0.640584 679.848V679.943H0.578084V679.867V679.848V679.829C0.562459 679.829 0.546835 679.839 0.536418 679.848V679.867V679.943H0.473918V679.867V679.848C0.473918 679.839 0.463501 679.829 0.453084 679.829L0.432251 679.848V679.867V679.943H0.369751V679.792H0.432251V679.81V679.792H0.473918C0.484334 679.792 0.494751 679.801 0.494751 679.81H0.536418Z" fill="black"/>
<path d="M0.854146 679.754V679.792H0.916646V679.829H0.854146V679.886V679.905H0.87498H0.895813V679.942H0.854146H0.81248C0.796854 679.933 0.791646 679.914 0.791646 679.886V679.829H0.770813V679.792H0.791646V679.754H0.854146Z" fill="black"/>
<path d="M1.10414 679.848V679.942H1.06247V679.867V679.848C1.06247 679.848 1.05205 679.843 1.04164 679.829H1.0208L0.999969 679.848V679.867V679.942H0.937469V679.735H0.999969V679.81C0.999969 679.801 1.00518 679.791 1.0208 679.791H1.04164C1.06768 679.791 1.0833 679.801 1.0833 679.81C1.09372 679.824 1.10414 679.838 1.10414 679.848V679.848Z" fill="black"/>
<path d="M1.32289 679.867V679.886H1.19789V679.905H1.23955H1.28122C1.29164 679.905 1.30726 679.9 1.32289 679.886V679.943H1.28122H1.23955C1.2083 679.943 1.18747 679.938 1.17705 679.924C1.16143 679.914 1.15622 679.895 1.15622 679.867C1.15622 679.843 1.16143 679.825 1.17705 679.81C1.18747 679.801 1.2083 679.792 1.23955 679.792C1.26559 679.792 1.28643 679.801 1.30205 679.81C1.31247 679.825 1.32289 679.843 1.32289 679.867ZM1.28122 679.848C1.28122 679.839 1.2708 679.829 1.26039 679.829H1.23955H1.19789V679.848H1.28122Z" fill="black"/>
<path d="M1.46872 679.735H1.53122L1.61455 679.886V679.735H1.67705V679.942H1.61455L1.53122 679.81V679.942H1.46872V679.735Z" fill="black"/>
<path d="M1.80727 679.829C1.79165 679.829 1.77602 679.839 1.7656 679.848V679.867V679.905H1.80727H1.8281C1.83852 679.895 1.84894 679.881 1.84894 679.867C1.84894 679.858 1.83852 679.848 1.8281 679.848C1.8281 679.839 1.81769 679.829 1.80727 679.829ZM1.80727 679.792C1.83331 679.792 1.85415 679.801 1.86977 679.81C1.88019 679.825 1.8906 679.843 1.8906 679.867C1.8906 679.895 1.88019 679.914 1.86977 679.924C1.85415 679.938 1.83331 679.943 1.80727 679.943C1.77602 679.943 1.75519 679.938 1.74477 679.924C1.72915 679.914 1.72394 679.895 1.72394 679.867C1.72394 679.843 1.72915 679.825 1.74477 679.81C1.75519 679.801 1.77602 679.792 1.80727 679.792Z" fill="black"/>
<path d="M1.93747 679.886V679.792H1.99997V679.81V679.829V679.867V679.886V679.905H2.0208H2.04164C2.05205 679.895 2.06247 679.881 2.06247 679.867V679.792H2.10414V679.943H2.06247V679.924C2.04684 679.938 2.03122 679.943 2.0208 679.943H1.99997C1.98434 679.943 1.96872 679.938 1.9583 679.924C1.94268 679.914 1.93747 679.9 1.93747 679.886Z" fill="black"/>
<path d="M2.31767 679.848V679.943H2.276V679.867V679.848C2.276 679.848 2.26558 679.843 2.25517 679.829H2.23433L2.2135 679.848V679.867V679.943H2.151V679.792H2.2135V679.81C2.2135 679.801 2.21871 679.792 2.23433 679.792H2.25517C2.28121 679.792 2.29683 679.801 2.29683 679.81C2.30725 679.825 2.31767 679.839 2.31767 679.848Z" fill="black"/>
<path d="M2.47916 679.735H2.58332C2.60936 679.735 2.6302 679.744 2.64582 679.754C2.65624 679.768 2.66666 679.787 2.66666 679.81C2.66666 679.838 2.65624 679.857 2.64582 679.867H2.58332H2.54166V679.942H2.47916V679.735ZM2.54166 679.772V679.829H2.58332C2.59374 679.829 2.60416 679.824 2.60416 679.81C2.60416 679.801 2.59374 679.791 2.58332 679.791V679.772H2.54166Z" fill="black"/>
<path d="M2.82813 679.829H2.80729C2.79167 679.829 2.77604 679.839 2.76563 679.848V679.867V679.943H2.70312V679.792H2.76563V679.81V679.792H2.80729H2.82813V679.829Z" fill="black"/>
<path d="M2.93227 679.829C2.91665 679.829 2.90102 679.839 2.8906 679.848V679.867V679.905H2.93227H2.9531C2.96352 679.895 2.97394 679.881 2.97394 679.867C2.97394 679.858 2.96352 679.848 2.9531 679.848C2.9531 679.839 2.94269 679.829 2.93227 679.829ZM2.93227 679.792C2.95831 679.792 2.97915 679.801 2.99477 679.81C3.00519 679.825 3.0156 679.843 3.0156 679.867C3.0156 679.895 3.00519 679.914 2.99477 679.924C2.97915 679.938 2.95831 679.943 2.93227 679.943C2.90102 679.943 2.88019 679.938 2.86977 679.924C2.85415 679.914 2.84894 679.895 2.84894 679.867C2.84894 679.843 2.85415 679.825 2.86977 679.81C2.88019 679.801 2.90102 679.792 2.93227 679.792Z" fill="black"/>
<path d="M3.06249 679.791H3.12499V679.943C3.12499 679.952 3.11457 679.966 3.10416 679.981C3.08853 679.99 3.07291 680 3.06249 680H3.04166V679.962H3.06249V679.943V679.791ZM3.06249 679.735H3.12499V679.773H3.06249V679.735Z" fill="black"/>
<path d="M3.33329 679.867V679.886H3.20829V679.905H3.24996H3.29163C3.30204 679.905 3.31767 679.9 3.33329 679.886V679.943H3.29163H3.24996C3.21871 679.943 3.19788 679.938 3.18746 679.924C3.17183 679.914 3.16663 679.895 3.16663 679.867C3.16663 679.843 3.17183 679.825 3.18746 679.81C3.19788 679.801 3.21871 679.792 3.24996 679.792C3.276 679.792 3.29683 679.801 3.31246 679.81C3.32288 679.825 3.33329 679.843 3.33329 679.867ZM3.29163 679.848C3.29163 679.839 3.28121 679.829 3.27079 679.829H3.24996H3.20829V679.848H3.29163Z" fill="black"/>
<path d="M3.5208 679.792V679.829H3.47914H3.4583L3.43747 679.848C3.42184 679.848 3.41664 679.858 3.41664 679.867C3.41664 679.881 3.42184 679.895 3.43747 679.905H3.4583H3.47914H3.5208V679.943H3.47914H3.4583C3.42705 679.943 3.40622 679.938 3.3958 679.924C3.38018 679.914 3.37497 679.895 3.37497 679.867C3.37497 679.843 3.38018 679.825 3.3958 679.81C3.40622 679.801 3.42705 679.792 3.4583 679.792H3.47914H3.5208Z" fill="black"/>
<path d="M3.61455 679.754V679.792H3.67705V679.829H3.61455V679.886V679.905H3.63539H3.65622V679.942H3.61455H3.57289C3.55726 679.933 3.55205 679.914 3.55205 679.886V679.829H3.53122V679.792H3.55205V679.754H3.61455Z" fill="black"/>
</svg>
