<svg width="24" height="24" viewBox="0 0 24 24" fill="none" xmlns="http://www.w3.org/2000/svg">
<path fill-rule="evenodd" clip-rule="evenodd" d="M12.378 0C15.294 0 15.7188 0.0155999 16.9476 0.0719999C18.2244 0.1308 19.0968 0.3336 19.86 0.63C20.661 0.931049 21.3866 1.40323 21.9864 2.0136C22.5967 2.61332 23.0689 3.339 23.37 4.14C23.6664 4.9032 23.8692 5.7756 23.928 7.0524C23.9856 8.3328 24 8.7408 24 12V12.096C24 15.2676 23.9856 15.6804 23.928 16.9476C23.8692 18.2244 23.6664 19.0968 23.37 19.86C23.0689 20.661 22.5967 21.3866 21.9864 21.9864C21.3866 22.5967 20.661 23.0689 19.86 23.37C19.0968 23.6664 18.2244 23.8692 16.9476 23.928C15.6672 23.9856 15.2592 24 12 24H11.904C8.7324 24 8.3196 23.9856 7.0524 23.928C5.7756 23.8692 4.9032 23.6664 4.14 23.37C3.339 23.0689 2.61332 22.5967 2.0136 21.9864C1.40323 21.3866 0.931049 20.661 0.63 19.86C0.3336 19.0968 0.1308 18.2244 0.0719999 16.9476C0.0155999 15.7188 0 15.2928 0 12.378V11.622C0 8.706 0.0155999 8.2812 0.0719999 7.0524C0.1308 5.7756 0.3336 4.9032 0.63 4.14C0.931049 3.339 1.40323 2.61332 2.0136 2.0136C2.61332 1.40323 3.339 0.931049 4.14 0.63C4.9032 0.3336 5.7756 0.1308 7.0524 0.0719999C8.2812 0.0155999 8.7072 0 11.622 0H12.378ZM12.2808 2.1624H11.7192C8.772 2.1624 8.3784 2.1756 7.1508 2.232C5.9808 2.286 5.346 2.4804 4.9224 2.6448C4.362 2.8632 3.9624 3.1224 3.5424 3.5424C3.1224 3.9624 2.8632 4.362 2.6448 4.9224C2.4804 5.346 2.2848 5.9808 2.232 7.1508C2.1756 8.3784 2.1624 8.772 2.1624 11.7192V12.2808C2.1624 15.228 2.1756 15.6216 2.232 16.8492C2.286 18.0192 2.4804 18.654 2.6448 19.0776C2.8632 19.6368 3.1236 20.0376 3.5424 20.4576C3.9624 20.8776 4.362 21.1368 4.9224 21.3552C5.346 21.5196 5.9808 21.7152 7.1508 21.768C8.4156 21.8256 8.7948 21.8376 12 21.8376H12.096C15.2124 21.8376 15.5964 21.8256 16.848 21.768C18.0192 21.714 18.654 21.5196 19.0776 21.3552C19.6368 21.1368 20.0376 20.8776 20.4576 20.4576C20.8776 20.0376 21.1368 19.638 21.3552 19.0776C21.5196 18.654 21.7152 18.0192 21.768 16.8492C21.8256 15.5832 21.8376 15.2052 21.8376 12V11.904C21.8376 8.7876 21.8256 8.4036 21.768 7.152C21.714 5.9808 21.5196 5.346 21.3552 4.9224C21.163 4.40108 20.8562 3.92952 20.4576 3.5424C20.0705 3.14383 19.5989 2.83711 19.0776 2.6448C18.654 2.4804 18.0192 2.2848 16.8492 2.232C15.6216 2.1756 15.228 2.1624 12.2808 2.1624ZM12 5.838C12.8092 5.838 13.6105 5.99738 14.3581 6.30706C15.1057 6.61673 15.785 7.07062 16.3572 7.64281C16.9294 8.21501 17.3833 8.89429 17.6929 9.6419C18.0026 10.3895 18.162 11.1908 18.162 12C18.162 12.8092 18.0026 13.6105 17.6929 14.3581C17.3833 15.1057 16.9294 15.785 16.3572 16.3572C15.785 16.9294 15.1057 17.3833 14.3581 17.6929C13.6105 18.0026 12.8092 18.162 12 18.162C10.3657 18.162 8.79841 17.5128 7.64281 16.3572C6.48721 15.2016 5.838 13.6343 5.838 12C5.838 10.3657 6.48721 8.79841 7.64281 7.64281C8.79841 6.48721 10.3657 5.838 12 5.838ZM12 8.0004C10.9392 8.0004 9.92192 8.42178 9.17185 9.17185C8.42178 9.92192 8.0004 10.9392 8.0004 12C8.0004 13.0608 8.42178 14.078 9.17185 14.8282C9.92192 15.5782 10.9392 15.9996 12 15.9996C13.0608 15.9996 14.078 15.5782 14.8282 14.8282C15.5782 14.078 15.9996 13.0608 15.9996 12C15.9996 10.9392 15.5782 9.92192 14.8282 9.17185C14.078 8.42178 13.0608 8.0004 12 8.0004ZM18.4056 4.1544C18.7876 4.1544 19.1538 4.30612 19.4238 4.57616C19.6939 4.84622 19.8456 5.21249 19.8456 5.5944C19.8456 5.97631 19.6939 6.34258 19.4238 6.61264C19.1538 6.88268 18.7876 7.0344 18.4056 7.0344C18.0236 7.0344 17.6574 6.88268 17.3874 6.61264C17.1173 6.34258 16.9656 5.97631 16.9656 5.5944C16.9656 5.21249 17.1173 4.84622 17.3874 4.57616C17.6574 4.30612 18.0236 4.1544 18.4056 4.1544Z" fill="#595959"/>
</svg>
