<svg width="24" height="24" viewBox="0 0 24 24" fill="none" xmlns="http://www.w3.org/2000/svg">
<path fill-rule="evenodd" clip-rule="evenodd" d="M2.55733 5.22945C4.1747 5.22945 5.20895 4.06794 5.20895 2.63269C5.17794 1.12769 4.17469 0 2.58831 0C1.00293 0 -0.0312851 1.12769 0.000722478 2.63269C-0.0312851 4.06794 1.00296 5.22945 2.55733 5.22945ZM0.130758 7.28085V23.9975H5.04791V7.28085H0.130758ZM8.85837 7.28225C8.9234 8.75239 8.98841 10.5301 8.98841 12.6153H8.9904V24H13.9076V14.3591C13.9076 13.8793 13.9716 13.4016 14.1017 13.0592C14.4247 12.1027 15.2328 11.1113 16.5922 11.1113C18.3715 11.1113 19.0827 12.5804 19.0827 14.7354V24H24V14.0844C24 9.16351 21.5734 6.90706 18.3386 6.90706C15.718 6.90706 14.1006 8.51248 13.4535 9.57253H13.3564L13.1294 7.28225H8.85837Z" fill="#595959"/>
</svg>
