<?xml version="1.0" encoding="utf-8"?>
<!-- Generator: Adobe Illustrator 21.0.0, SVG Export Plug-In . SVG Version: 6.00 Build 0)  -->
<svg version="1.1" fill="#fff" id="Layer_1" xmlns="http://www.w3.org/2000/svg" xmlns:xlink="http://www.w3.org/1999/xlink" x="0px" y="0px"
	 viewBox="0 0 512 512" style="enable-background:new 0 0 512 512;" xml:space="preserve">
<g>
	<path d="M256,18.3c-20.2,0-36.6,16.4-36.6,36.6c0,13.5,7.4,25.1,18.3,31.4V128h-91.4c-50.3,0-91.4,41.1-91.4,91.4V256H0v146.3h54.9
		v91.4h402.3v-91.4H512V256h-54.9v-36.6c0-50.3-41.1-91.4-91.4-91.4h-91.4V86.3c10.9-6.4,18.3-17.9,18.3-31.4
		C292.6,34.6,276.2,18.3,256,18.3z M146.3,164.6h219.4c30.5,0,54.9,24.4,54.9,54.9v237.7H384v-91.4H128v91.4H91.4V219.4
		C91.4,188.9,115.8,164.6,146.3,164.6z M182.9,237.7c-20.2,0-36.6,16.4-36.6,36.6s16.4,36.6,36.6,36.6s36.6-16.4,36.6-36.6
		S203.1,237.7,182.9,237.7z M329.1,237.7c-20.2,0-36.6,16.4-36.6,36.6s16.4,36.6,36.6,36.6s36.6-16.4,36.6-36.6
		S349.4,237.7,329.1,237.7z M36.6,292.6h18.3v73.1H36.6V292.6z M457.1,292.6h18.3v73.1h-18.3V292.6z M164.6,402.3h36.6v54.9h-36.6
		V402.3z M237.7,402.3h36.6v54.9h-36.6V402.3z M310.9,402.3h36.6v54.9h-36.6V402.3z"/>
</g>
</svg>
